<svg id="Capa_1" data-name="Capa 1" xmlns="http://www.w3.org/2000/svg" viewBox="0 0 800 588"><title>Logos</title><path d="M151.52,298v42.93q4.15-10.86,11.59-15a31.47,31.47,0,0,1,15.58-4.15,27.89,27.89,0,0,1,10.15,1.6,18.37,18.37,0,0,1,6.79,4.47,18.14,18.14,0,0,1,4.31,8,52.3,52.3,0,0,1,1.28,12.94v42.67q0,6.71,2.8,9.11t9.35,2.39v3.36q-2.73-.17-8.31-.4t-10.87-.24c-3.52,0-6.95.08-10.31.24s-5.88.29-7.59.4v-3.36c3.84,0,6.55-.8,8.15-2.39s2.4-4.64,2.4-9.11V345.26a48.57,48.57,0,0,0-.8-9.11,11.81,11.81,0,0,0-3.59-6.71c-1.87-1.7-4.72-2.56-8.55-2.56a19.16,19.16,0,0,0-11.59,3.68,24.61,24.61,0,0,0-7.91,10.22,37,37,0,0,0-2.88,15v35.64q0,6.71,2.4,9.11t8.15,2.39v3.36q-2.55-.17-7.59-.4c-3.35-.16-6.79-.24-10.3-.24s-7.14.08-10.87.24-6.5.29-8.31.4v-3.36c4.37,0,7.48-.8,9.35-2.39s2.79-4.64,2.79-9.11V317.19q0-7.2-2.55-10.63T125,303.12v-3.35q5.12.48,9.91.48a68.32,68.32,0,0,0,8.87-.56A44.22,44.22,0,0,0,151.52,298Z"/><path d="M253.15,321.77a37.57,37.57,0,0,1,18.38,4.47q8.14,4.49,13,14.06t4.88,24.93q0,15.34-4.88,24.85a32,32,0,0,1-13,14,39.76,39.76,0,0,1-36.67,0,31.84,31.84,0,0,1-13.11-14q-4.87-9.51-4.87-24.85t4.87-24.93a31.83,31.83,0,0,1,13.11-14.06A37.66,37.66,0,0,1,253.15,321.77Zm0,3.19q-9.1,0-14.94,9.43t-5.83,30.84q0,21.42,5.83,30.76t14.94,9.35q9.11,0,14.94-9.35t5.84-30.76q0-21.41-5.84-30.84T253.15,325Z"/><path d="M319,297.85v93.59q0,6.71,2.79,9.11c1.87,1.59,5,2.39,9.35,2.39v3.36q-2.72-.17-8.23-.4c-3.67-.16-7.38-.24-11.1-.24s-7.3.08-11,.24-6.5.29-8.31.4v-3.36c4.37,0,7.48-.8,9.35-2.39s2.8-4.64,2.8-9.11V317q0-7.2-2.56-10.63T292.46,303v-3.35q5.12.48,9.91.48a68.32,68.32,0,0,0,8.87-.56A44.54,44.54,0,0,0,319,297.85Z"/><path d="M359.41,322.25v69.19c0,4.47.94,7.51,2.8,9.11s5,2.39,9.35,2.39v3.36c-1.81-.11-4.56-.24-8.23-.4s-7.38-.24-11.11-.24-7.29.08-11,.24-6.5.29-8.31.4v-3.36c4.37,0,7.48-.8,9.35-2.39s2.79-4.64,2.79-9.11v-50q0-7.19-2.55-10.62t-9.59-3.44V324c3.41.32,6.71.47,9.91.47a68.2,68.2,0,0,0,8.86-.55A46,46,0,0,0,359.41,322.25Zm14.73-27.82a5.45,5.45,0,0,1,.21,4.27c-.52,1.47-1.84,2.79-4,3.95a40.32,40.32,0,0,1-7.21,2.79q-4.08,1.19-9.59,2.91t-13.38,4.87l-.91-1.86q7.08-4.62,11.66-8.14t7.88-6.17a37.18,37.18,0,0,1,6.45-4.27q3.19-1.74,5.51-1A5.58,5.58,0,0,1,374.14,294.43Z"/><path d="M401.92,321.77a25.57,25.57,0,0,1,10.86,2.08,30.22,30.22,0,0,1,6.56,3.83q5.27,4.32,6.39-5.75h3.67c-.21,3-.37,6.53-.48,10.62s-.16,9.62-.16,16.54h-3.67a51.28,51.28,0,0,0-3.28-11.5A22.7,22.7,0,0,0,415,328.4q-4.47-3.6-11.66-3.6a14.13,14.13,0,0,0-9.35,3.12q-3.76,3.12-3.76,9.19a12.41,12.41,0,0,0,2.88,8.23,32.45,32.45,0,0,0,7.51,6.39q4.64,3,10.07,6.47a119.4,119.4,0,0,1,11,7.83,34.92,34.92,0,0,1,7.91,8.79,21.2,21.2,0,0,1,3,11.34,19.47,19.47,0,0,1-3.84,12.31,23.93,23.93,0,0,1-10,7.51,35,35,0,0,1-13.51,2.56,37.83,37.83,0,0,1-6.63-.56,33.4,33.4,0,0,1-6-1.68,29.26,29.26,0,0,1-3.28-1.92c-1.11-.74-2.21-1.54-3.27-2.4a1.9,1.9,0,0,0-2.88.08q-1.28,1.37-1.92,5.36h-3.67q.31-5.12.48-12.47t.16-19.49h3.67a91.84,91.84,0,0,0,3.2,15.66,21.62,21.62,0,0,0,6.55,10.47q4.47,3.75,12.47,3.75a16,16,0,0,0,6.47-1.44,12.78,12.78,0,0,0,5.51-4.79,15.92,15.92,0,0,0,2.24-8.95,14.57,14.57,0,0,0-5.12-11.5,104.33,104.33,0,0,0-12.94-9.43q-5.74-3.68-10.79-7.35a33.56,33.56,0,0,1-8.15-8.31,19.64,19.64,0,0,1-3.11-11.19q0-7.19,3.27-11.74a19.16,19.16,0,0,1,8.71-6.71A31.28,31.28,0,0,1,401.92,321.77Z"/><path d="M464.08,297.48v26.69h23.65v3.19H464.08V389.2q0,7.51,2.71,10.55a9.58,9.58,0,0,0,7.51,3,10.81,10.81,0,0,0,8.31-3.91q3.51-3.92,6.07-13.18l3.2.79a36.4,36.4,0,0,1-6.31,15.66q-4.72,6.39-14.46,6.4a25.19,25.19,0,0,1-8.95-1.36,18.9,18.9,0,0,1-6.23-3.92,19.8,19.8,0,0,1-4.88-8.79,55,55,0,0,1-1.35-13.58V327.36H434.35v-3.19H449.7V299.72q4-.17,7.66-.64A30.91,30.91,0,0,0,464.08,297.48Z"/><path d="M515.05,322.25v69.19q0,6.71,2.8,9.11t9.34,2.39v3.36q-2.72-.17-8.23-.4t-11.1-.24q-5.43,0-11,.24t-8.31.4v-3.36q6.56,0,9.35-2.39c1.86-1.6,2.8-4.64,2.8-9.11v-50q0-7.19-2.56-10.62t-9.59-3.44V324c3.41.32,6.72.47,9.91.47a68.36,68.36,0,0,0,8.87-.55A46.46,46.46,0,0,0,515.05,322.25Zm-8.31-28.09a10.37,10.37,0,1,1-7.19,3A9.83,9.83,0,0,1,506.74,294.16Z"/><path d="M568.9,321.77a38.42,38.42,0,0,1,9.91,1.28,28.79,28.79,0,0,1,8.62,3.83,17.9,17.9,0,0,1,5.6,5.52,12.68,12.68,0,0,1,1.92,6.79,8.81,8.81,0,0,1-2.4,6.63,8.39,8.39,0,0,1-6.07,2.31,9.69,9.69,0,0,1-6.16-2.07,7.12,7.12,0,0,1-2.63-5.92,8.54,8.54,0,0,1,2-5.91,9,9,0,0,1,4.72-2.87,12.09,12.09,0,0,0-5.67-4.8,20.19,20.19,0,0,0-8.71-1.92,18.27,18.27,0,0,0-8,1.92,20.65,20.65,0,0,0-7.35,6.31,35,35,0,0,0-5.44,12,73.24,73.24,0,0,0-2.07,18.93q0,14.07,3.19,22.37t8.39,11.91a19.62,19.62,0,0,0,11.43,3.6,24.13,24.13,0,0,0,16.62-6.8,29.74,29.74,0,0,0,6.55-9.66l3,1.11a36.81,36.81,0,0,1-5.27,10.31,29.27,29.27,0,0,1-9.59,8.55q-5.91,3.36-14.54,3.36a32.5,32.5,0,0,1-17.9-5.12,35.68,35.68,0,0,1-12.7-14.62q-4.71-9.51-4.71-22.61a53.59,53.59,0,0,1,4.71-23.09,37.76,37.76,0,0,1,13.18-15.66A34,34,0,0,1,568.9,321.77Z"/><path d="M622.91,407.42a24.45,24.45,0,0,1-11.35-2.48,17,17,0,0,1-7.27-6.95,21.09,21.09,0,0,1-2.47-10.39q0-7,3.27-11.5a24.41,24.41,0,0,1,8.39-7.19,67.17,67.17,0,0,1,10.79-4.56q5.67-1.83,10.78-3.51a33,33,0,0,0,8.39-3.92,6.86,6.86,0,0,0,3.28-5.91V341.1q0-6.71-2-10.22a10,10,0,0,0-5.35-4.72,22.24,22.24,0,0,0-7.51-1.2,36.15,36.15,0,0,0-8.55,1.12,12.76,12.76,0,0,0-7.27,4.64,9.49,9.49,0,0,1,5.27,3.19,9.61,9.61,0,0,1,2.24,6.55,8.13,8.13,0,0,1-2.56,6.32,9.41,9.41,0,0,1-6.55,2.31q-4.63,0-6.79-2.95a11,11,0,0,1-2.16-6.64,10.31,10.31,0,0,1,2.08-6.71,25.7,25.7,0,0,1,5.27-4.79,35.16,35.16,0,0,1,9.51-4.39,43.64,43.64,0,0,1,13.18-1.84,36.25,36.25,0,0,1,11.19,1.52,20,20,0,0,1,7.67,4.39,18,18,0,0,1,5.43,9.35,59.17,59.17,0,0,1,1.28,13.18v44.42q0,4,1.2,5.76a4.22,4.22,0,0,0,3.75,1.75,7.47,7.47,0,0,0,3.36-.79,24.56,24.56,0,0,0,3.83-2.56l1.76,2.72a54,54,0,0,1-6.39,4.23,16.87,16.87,0,0,1-8.15,1.68,16.43,16.43,0,0,1-7.67-1.6,10.23,10.23,0,0,1-4.55-4.71,18,18,0,0,1-1.52-7.91,29.84,29.84,0,0,1-10.31,10.7A26.15,26.15,0,0,1,622.91,407.42Zm5.75-6.39a17.42,17.42,0,0,0,9.83-3,28.37,28.37,0,0,0,8.23-9.11V357.56a14.81,14.81,0,0,1-5.6,4.56c-2.45,1.22-5.11,2.45-8,3.67a57.88,57.88,0,0,0-8.22,4.32,20.84,20.84,0,0,0-6.48,6.47q-2.55,4-2.55,10.38c0,4.27,1.14,7.67,3.43,10.23A11.92,11.92,0,0,0,628.66,401Z"/><path d="M238.66,285a23.93,23.93,0,0,1-11.09-2.42,16.56,16.56,0,0,1-7.1-6.8,20.51,20.51,0,0,1-2.42-10.15q0-6.87,3.2-11.24a23.73,23.73,0,0,1,8.2-7A65.34,65.34,0,0,1,240,242.88q5.53-1.8,10.54-3.44a32.7,32.7,0,0,0,8.2-3.82,6.72,6.72,0,0,0,3.2-5.78v-9.69q0-6.56-1.95-10a9.72,9.72,0,0,0-5.23-4.61,21.78,21.78,0,0,0-7.34-1.17,35.05,35.05,0,0,0-8.36,1.09A12.42,12.42,0,0,0,232,210a9.37,9.37,0,0,1,7.34,9.53,7.94,7.94,0,0,1-2.5,6.17,9.18,9.18,0,0,1-6.41,2.26q-4.53,0-6.63-2.89a10.67,10.67,0,0,1-2.11-6.48,10,10,0,0,1,2-6.56,25,25,0,0,1,5.15-4.68,34.34,34.34,0,0,1,9.3-4.3,42.64,42.64,0,0,1,12.88-1.8,35.3,35.3,0,0,1,10.93,1.49,19.65,19.65,0,0,1,7.5,4.29,17.55,17.55,0,0,1,5.31,9.14A57.94,57.94,0,0,1,276,229.06v43.42q0,3.9,1.17,5.62a4.12,4.12,0,0,0,3.67,1.72,7.11,7.11,0,0,0,3.28-.79,22.83,22.83,0,0,0,3.75-2.49l1.72,2.65a50.91,50.91,0,0,1-6.25,4.14,16.52,16.52,0,0,1-8,1.64,16,16,0,0,1-7.5-1.56,10,10,0,0,1-4.45-4.61,17.63,17.63,0,0,1-1.49-7.73,29.07,29.07,0,0,1-10.07,10.46A25.49,25.49,0,0,1,238.66,285Zm5.62-6.25a17,17,0,0,0,9.61-3,27.39,27.39,0,0,0,8-8.9V236.24a14.32,14.32,0,0,1-5.46,4.45q-3.6,1.8-7.81,3.59a57,57,0,0,0-8,4.22,20.31,20.31,0,0,0-6.32,6.33q-2.5,3.9-2.5,10.15c0,4.16,1.12,7.5,3.36,10A11.64,11.64,0,0,0,244.28,278.72Z"/><path d="M323.94,201.25a37.51,37.51,0,0,1,9.68,1.25,28.58,28.58,0,0,1,8.44,3.75,17.46,17.46,0,0,1,5.46,5.39,12.42,12.42,0,0,1,1.88,6.64,8.61,8.61,0,0,1-2.35,6.48,8.18,8.18,0,0,1-5.93,2.26,9.42,9.42,0,0,1-6-2,6.93,6.93,0,0,1-2.57-5.77,8.36,8.36,0,0,1,2-5.78,8.81,8.81,0,0,1,4.61-2.82,11.77,11.77,0,0,0-5.55-4.68,19.7,19.7,0,0,0-8.51-1.87,17.9,17.9,0,0,0-7.81,1.87,20.2,20.2,0,0,0-7.18,6.17,34,34,0,0,0-5.31,11.71,71.15,71.15,0,0,0-2,18.51q0,13.75,3.12,21.87t8.2,11.63a19.15,19.15,0,0,0,11.17,3.52c23.09,0,35.35-35.54,37.12-39.5v5c-1,3.33-14,41.2-40.25,41.2a31.79,31.79,0,0,1-17.49-5,34.88,34.88,0,0,1-12.42-14.3q-4.61-9.28-4.6-22.1a52.3,52.3,0,0,1,4.6-22.56A36.92,36.92,0,0,1,305,206.8,33.16,33.16,0,0,1,323.94,201.25Z"/><path d="M376,179.62V220q4.05-10.62,11.32-14.68a30.75,30.75,0,0,1,15.23-4.07,27.41,27.41,0,0,1,9.92,1.57,18.06,18.06,0,0,1,6.63,4.37,17.65,17.65,0,0,1,4.22,7.81,51.13,51.13,0,0,1,1.25,12.65v41.7q0,6.56,2.73,8.9t9.14,2.35v3.28q-2.65-.17-8.12-.39t-10.62-.24q-5.16,0-10.08.24t-7.42.39V280.6q5.63,0,8-2.35t2.34-8.9V224.21a47.33,47.33,0,0,0-.78-8.9,11.57,11.57,0,0,0-3.51-6.56c-1.82-1.66-4.61-2.5-8.36-2.5a18.72,18.72,0,0,0-11.32,3.59,24,24,0,0,0-7.73,10A36.1,36.1,0,0,0,376,234.52v34.83q0,6.56,2.34,8.9c1.56,1.57,4.22,2.35,8,2.35v3.28q-2.49-.17-7.41-.39c-3.29-.16-6.64-.24-10.08-.24s-7,.08-10.62.24-6.35.28-8.12.39V280.6c4.27,0,7.31-.78,9.14-2.35s2.73-4.53,2.73-8.9v-71q0-7-2.5-10.38T350,184.62v-3.28q5,.47,9.68.47a65.27,65.27,0,0,0,8.67-.55A43.72,43.72,0,0,0,376,179.62Z"/><path d="M458.41,179.46v89.89q0,6.56,2.34,8.9c1.57,1.57,4.22,2.35,8,2.35v3.28q-2.5-.17-7.42-.39t-9.92-.24q-5.31,0-10.77.24t-8.12.39V280.6c4.26,0,7.31-.78,9.13-2.35s2.74-4.53,2.74-8.9V198.21q0-7-2.5-10.39t-9.37-3.36v-3.28c3.33.31,6.55.47,9.68.47a65.27,65.27,0,0,0,8.67-.55A43.6,43.6,0,0,0,458.41,179.46Zm49.67,24v3.12a19.11,19.11,0,0,0-7.34,2.11,26.38,26.38,0,0,0-6.72,5.24L472,237l2.19-4.37,29.05,39.83a32.91,32.91,0,0,0,5.07,5.62,11.4,11.4,0,0,0,5.86,2.5v3.28c-1.15-.11-2.94-.24-5.39-.39s-4.87-.24-7.26-.24q-4.84,0-9.84.24t-7.5.39V280.6c2.08,0,3.54-.52,4.38-1.57s.67-2.28-.47-3.74l-18-26.24q-3-4.22-5.39-5.47a16.94,16.94,0,0,0-6.95-1.41v-3.12a26.8,26.8,0,0,0,8.12-2.11,20.1,20.1,0,0,0,5.93-4.45l11.56-12q5-5.16,5-8.2c0-2-1.07-3.49-3.2-4.38a22.23,22.23,0,0,0-8.36-1.33v-3.12l9.14.39q5.07.24,8.51.24c1.77,0,3.49,0,5.16-.08s3.22-.13,4.68-.24S507,203.55,508.08,203.44Z"/><path d="M531,285A23.9,23.9,0,0,1,520,282.55a16.64,16.64,0,0,1-7.11-6.8,20.62,20.62,0,0,1-2.42-10.15q0-6.87,3.2-11.24a23.91,23.91,0,0,1,8.2-7,65.45,65.45,0,0,1,10.55-4.45l10.54-3.44a32.87,32.87,0,0,0,8.2-3.82,6.72,6.72,0,0,0,3.2-5.78v-9.69q0-6.56-1.95-10a9.79,9.79,0,0,0-5.23-4.61,21.8,21.8,0,0,0-7.35-1.17,35,35,0,0,0-8.35,1.09,12.45,12.45,0,0,0-7.11,4.53,9.35,9.35,0,0,1,7.34,9.53,7.9,7.9,0,0,1-2.5,6.17,9.15,9.15,0,0,1-6.4,2.26q-4.53,0-6.64-2.89a10.74,10.74,0,0,1-2.11-6.48,10.1,10.1,0,0,1,2-6.56,25.12,25.12,0,0,1,5.16-4.68,34.26,34.26,0,0,1,9.29-4.3,42.76,42.76,0,0,1,12.89-1.8,35.34,35.34,0,0,1,10.93,1.49,19.65,19.65,0,0,1,7.5,4.29,17.68,17.68,0,0,1,5.31,9.14,57.94,57.94,0,0,1,1.25,12.89v43.42q0,3.9,1.17,5.62a4.11,4.11,0,0,0,3.67,1.72,7.14,7.14,0,0,0,3.28-.79,22.83,22.83,0,0,0,3.75-2.49l1.71,2.65a50.85,50.85,0,0,1-6.24,4.14,16.56,16.56,0,0,1-8,1.64,16,16,0,0,1-7.5-1.56,10.09,10.09,0,0,1-4.45-4.61,17.64,17.64,0,0,1-1.48-7.73,29.07,29.07,0,0,1-10.07,10.46A25.54,25.54,0,0,1,531,285Zm5.62-6.25a17,17,0,0,0,9.61-3,27.61,27.61,0,0,0,8-8.9V236.24a14.28,14.28,0,0,1-5.47,4.45q-3.58,1.8-7.81,3.59a56.89,56.89,0,0,0-8,4.22,20.45,20.45,0,0,0-6.33,6.33A18.61,18.61,0,0,0,524.17,265c0,4.16,1.11,7.5,3.35,10A11.66,11.66,0,0,0,536.66,278.72Z"/></svg>