<svg id="Capa_1" data-name="Capa 1" xmlns="http://www.w3.org/2000/svg" viewBox="0 0 800 800"><title>Logo principal - SVG</title><path d="M164.65,547.89a34.88,34.88,0,0,1-16.18-3.53,24.27,24.27,0,0,1-10.36-9.91,30,30,0,0,1-3.53-14.81q0-10,4.67-16.41a34.92,34.92,0,0,1,12-10.25,95.48,95.48,0,0,1,15.38-6.49q8.08-2.62,15.38-5a47.35,47.35,0,0,0,12-5.58,9.77,9.77,0,0,0,4.67-8.43V453.34q0-9.57-2.85-14.58a14.24,14.24,0,0,0-7.63-6.73,31.92,31.92,0,0,0-10.71-1.7,51.37,51.37,0,0,0-12.19,1.59,18.19,18.19,0,0,0-10.37,6.61,13.65,13.65,0,0,1,10.71,13.9,11.58,11.58,0,0,1-3.64,9,13.39,13.39,0,0,1-9.34,3.3q-6.62,0-9.69-4.22a15.6,15.6,0,0,1-3.07-9.45q0-5.93,3-9.57a36.36,36.36,0,0,1,7.52-6.83,50.24,50.24,0,0,1,13.55-6.27,62.39,62.39,0,0,1,18.8-2.62,51.7,51.7,0,0,1,15.95,2.16,28.66,28.66,0,0,1,10.93,6.27,25.64,25.64,0,0,1,7.75,13.33,84.5,84.5,0,0,1,1.82,18.79v63.34q0,5.7,1.71,8.2a6,6,0,0,0,5.36,2.51,10.54,10.54,0,0,0,4.78-1.14,33.91,33.91,0,0,0,5.47-3.64l2.5,3.87a75.63,75.63,0,0,1-9.11,6q-4.34,2.38-11.62,2.39a23.28,23.28,0,0,1-10.93-2.28,14.64,14.64,0,0,1-6.5-6.72,25.78,25.78,0,0,1-2.16-11.28q-6.15,10.26-14.7,15.27A37.32,37.32,0,0,1,164.65,547.89Zm8.2-9.11a24.78,24.78,0,0,0,14-4.33q6.49-4.34,11.74-13V476.8a20.88,20.88,0,0,1-8,6.5q-5.24,2.63-11.39,5.24a82.74,82.74,0,0,0-11.73,6.15,29.68,29.68,0,0,0-9.23,9.23q-3.65,5.7-3.64,14.81t4.89,14.58Q164.43,538.77,172.85,538.78Z"/><path d="M289.05,425.77a54.84,54.84,0,0,1,14.12,1.82,41.09,41.09,0,0,1,12.3,5.47,25.4,25.4,0,0,1,8,7.86,18.14,18.14,0,0,1,2.73,9.68q0,6.15-3.42,9.46a11.93,11.93,0,0,1-8.65,3.3,13.7,13.7,0,0,1-8.77-3,10.08,10.08,0,0,1-3.76-8.43,12.19,12.19,0,0,1,2.84-8.43,12.87,12.87,0,0,1,6.72-4.1q-2.28-4.1-8.08-6.84a28.89,28.89,0,0,0-12.42-2.73,26.12,26.12,0,0,0-11.39,2.73,29.59,29.59,0,0,0-10.48,9Q264,447.87,261,458.69t-3,27q0,20.06,4.56,31.9t12,17a28,28,0,0,0,16.29,5.13c33.68,0,51.56-51.85,54.15-57.62v7.31c-1.52,4.86-20.47,60.1-58.71,60.1a46.35,46.35,0,0,1-25.52-7.29q-11.39-7.29-18.11-20.84T236,489.11q0-18.67,6.72-32.92a53.72,53.72,0,0,1,18.8-22.33A48.39,48.39,0,0,1,289.05,425.77Z"/><path d="M364.91,394.21v58.9q5.93-15.5,16.52-21.42a45,45,0,0,1,22.21-5.92,39.86,39.86,0,0,1,14.47,2.28,26.23,26.23,0,0,1,9.68,6.38A25.88,25.88,0,0,1,434,445.82q1.82,6.84,1.82,18.45V525.1q0,9.57,4,13t13.33,3.42v4.78q-3.87-.22-11.84-.57t-15.5-.34q-7.51,0-14.69.34t-10.82.57v-4.78q8.19,0,11.62-3.42t3.41-13V459.26a68.84,68.84,0,0,0-1.14-13,16.91,16.91,0,0,0-5.12-9.57q-4-3.65-12.19-3.65a27.29,27.29,0,0,0-16.52,5.24A35.13,35.13,0,0,0,369,452.88a52.91,52.91,0,0,0-4.1,21.42v50.8q0,9.57,3.42,13T380,541.51v4.78q-3.65-.22-10.82-.57t-14.7-.34q-7.51,0-15.49.34t-11.85.57v-4.78q9.35,0,13.33-3.42c2.65-2.28,4-6.61,4-13V421.55q0-10.24-3.65-15.15t-13.67-4.9v-4.78q7.29.67,14.13.68a95.05,95.05,0,0,0,12.64-.8A63.48,63.48,0,0,0,364.91,394.21Z"/><path d="M485.21,394V525.1q0,9.57,3.42,13c2.27,2.28,6.15,3.42,11.61,3.42v4.78c-2.43-.15-6-.34-10.82-.57s-9.61-.34-14.47-.34q-7.74,0-15.71.34t-11.85.57v-4.78q9.33,0,13.33-3.42t4-13V421.32q0-10.24-3.64-15.15t-13.67-4.9v-4.78q7.29.69,14.12.68a97,97,0,0,0,12.65-.79A64.6,64.6,0,0,0,485.21,394Zm72.45,35v4.56A27.67,27.67,0,0,0,547,436.59a38.56,38.56,0,0,0-9.8,7.63L505,477.94l3.19-6.38,42.38,58.1a47,47,0,0,0,7.4,8.2,16.42,16.42,0,0,0,8.54,3.65v4.78q-2.5-.22-7.86-.57c-3.57-.22-7.1-.34-10.59-.34q-7.07,0-14.35.34c-4.87.23-8.51.42-10.94.57v-4.78c3,0,5.16-.76,6.38-2.28s1-3.34-.68-5.47l-26.2-38.27q-4.33-6.15-7.87-8t-10.13-2.05v-4.55a39.22,39.22,0,0,0,11.84-3.08,29.37,29.37,0,0,0,8.66-6.49l16.86-17.55q7.29-7.52,7.29-12c0-3-1.56-5.08-4.67-6.38a32.28,32.28,0,0,0-12.19-1.93V429q5.92.23,13.33.57t12.42.34c2.58,0,5.08,0,7.52-.11s4.7-.19,6.83-.34S556.14,429.11,557.66,429Z"/><path d="M591.15,547.89A34.88,34.88,0,0,1,575,544.36a24.27,24.27,0,0,1-10.36-9.91,30,30,0,0,1-3.53-14.81q0-10,4.67-16.41a34.82,34.82,0,0,1,12-10.25,95.48,95.48,0,0,1,15.38-6.49q8.07-2.62,15.37-5a47.43,47.43,0,0,0,12-5.58,9.77,9.77,0,0,0,4.67-8.43V453.34q0-9.57-2.85-14.58a14.24,14.24,0,0,0-7.63-6.73,31.92,31.92,0,0,0-10.71-1.7,51.37,51.37,0,0,0-12.19,1.59,18.19,18.19,0,0,0-10.37,6.61,13.65,13.65,0,0,1,10.71,13.9,11.58,11.58,0,0,1-3.64,9,13.42,13.42,0,0,1-9.35,3.3q-6.6,0-9.68-4.22a15.61,15.61,0,0,1-3.08-9.45,14.68,14.68,0,0,1,3-9.57,36.36,36.36,0,0,1,7.52-6.83,50.24,50.24,0,0,1,13.55-6.27,62.35,62.35,0,0,1,18.8-2.62,51.74,51.74,0,0,1,16,2.16A28.66,28.66,0,0,1,636,434.2a25.64,25.64,0,0,1,7.75,13.33,84.5,84.5,0,0,1,1.82,18.79v63.34q0,5.7,1.71,8.2a6,6,0,0,0,5.35,2.51,10.58,10.58,0,0,0,4.79-1.14,33.91,33.91,0,0,0,5.47-3.64l2.5,3.87a76.43,76.43,0,0,1-9.11,6q-4.34,2.38-11.62,2.39a23.35,23.35,0,0,1-10.94-2.28,14.67,14.67,0,0,1-6.49-6.72,25.78,25.78,0,0,1-2.16-11.28q-6.15,10.26-14.7,15.27A37.32,37.32,0,0,1,591.15,547.89Zm8.2-9.11a24.83,24.83,0,0,0,14-4.33q6.5-4.34,11.74-13V476.8a21,21,0,0,1-8,6.5q-5.24,2.63-11.39,5.24A82.74,82.74,0,0,0,594,494.69a29.68,29.68,0,0,0-9.23,9.23q-3.64,5.7-3.64,14.81T586,533.31Q590.92,538.77,599.35,538.78Z"/><path d="M279,580.51h5.07v35.7H279v-16H259.32v16h-5.07v-35.7h5.07v15.37H279Z"/><path d="M303.06,614.53a14.65,14.65,0,0,1-5.65-6.53,23.49,23.49,0,0,1-1.9-9.75,20.8,20.8,0,0,1,2.32-10.31,14.76,14.76,0,0,1,6.17-6.11,18.43,18.43,0,0,1,8.54-2,16.84,16.84,0,0,1,9.09,2.35,14.62,14.62,0,0,1,5.65,6.52,23.57,23.57,0,0,1,1.9,9.76,20.87,20.87,0,0,1-2.32,10.3,14.84,14.84,0,0,1-6.17,6.12,18.42,18.42,0,0,1-8.54,2A16.84,16.84,0,0,1,303.06,614.53Zm15.62-3.75a10.74,10.74,0,0,0,3.91-4.93,19,19,0,0,0,1.3-7.33,21.05,21.05,0,0,0-1.24-7.52,10.79,10.79,0,0,0-3.78-5,10.6,10.6,0,0,0-6.33-1.82,11.32,11.32,0,0,0-6.53,1.79,10.79,10.79,0,0,0-3.91,4.93,19,19,0,0,0-1.3,7.33,21,21,0,0,0,1.24,7.52,10.79,10.79,0,0,0,3.78,5,10.53,10.53,0,0,0,6.33,1.82A11.24,11.24,0,0,0,318.68,610.78Z"/><path d="M345.65,611.8h17.52v4.41H340.58v-35.7h5.07Z"/><path d="M372.92,578l-1.82-2.15,8.6-7,2.81,3.91Zm.17,38.24v-35.7h5.07v35.7Z"/><path d="M394.46,615.8a19.07,19.07,0,0,1-5.73-3l2.43-3.63a15.68,15.68,0,0,0,5,2.56,18,18,0,0,0,5.26.85,10.55,10.55,0,0,0,6-1.43,4.94,4.94,0,0,0,2.06-4.35,4.88,4.88,0,0,0-.74-2.81,6.59,6.59,0,0,0-2.42-2,35.09,35.09,0,0,0-4.82-2l-.94-.33a36.35,36.35,0,0,1-5.62-2.39,10,10,0,0,1-3.47-3.11,8.42,8.42,0,0,1-1.32-4.85,8.12,8.12,0,0,1,1.68-5.21,10.11,10.11,0,0,1,4.43-3.17,16.43,16.43,0,0,1,5.9-1,23.12,23.12,0,0,1,6.25.83,20.31,20.31,0,0,1,5.76,2.7L411.87,587a19,19,0,0,0-4.68-2.23,17.37,17.37,0,0,0-5.07-.69,9,9,0,0,0-4.85,1.21,4.13,4.13,0,0,0-1.92,3.75,4.21,4.21,0,0,0,.63,2.31,6,6,0,0,0,2.2,1.87,29.89,29.89,0,0,0,4.38,1.88l.94.33a45.49,45.49,0,0,1,5.89,2.39,11.22,11.22,0,0,1,3.81,3.25,8.94,8.94,0,0,1,1.59,5.49,9.62,9.62,0,0,1-1.59,5.64,9.81,9.81,0,0,1-4.58,3.47,19,19,0,0,1-7.05,1.19A22.75,22.75,0,0,1,394.46,615.8Z"/><path d="M451.93,580.51v4.4H439.58v31.3h-5.06v-31.3h-12.4v-4.4Z"/><path d="M461.84,616.21v-35.7h5.07v35.7Z"/><path d="M485.59,614.61a13.67,13.67,0,0,1-5.48-6.39,24.31,24.31,0,0,1-1.79-9.75,22,22,0,0,1,2.28-10.66,14.27,14.27,0,0,1,6-6.06,17.4,17.4,0,0,1,8.1-1.91,21.28,21.28,0,0,1,11.63,3.26L504.1,587a17,17,0,0,0-9.2-2.7q-5.73,0-8.46,3.75t-2.72,10.19q0,6.67,2.86,10.47t8.43,3.8a17,17,0,0,0,5.07-.71,22.79,22.79,0,0,0,4.52-2l2,3.69a28.31,28.31,0,0,1-5.71,2.59,20.46,20.46,0,0,1-6.14.88A17.31,17.31,0,0,1,485.59,614.61Z"/><path d="M532.34,580.51l13.41,35.37v.33h-5.28L536.73,606H521.52l-3.69,10.19h-5.08v-.33l13.42-35.37Zm-9.27,21.32h12.12l-6.05-16.53Z"/><path d="M401.91,273V253.5s-2.43-22.95,18.77-41.72,11.48-33.72,11.48-33.72S404.43,183.47,400,223c-4.43-39.5-32.16-44.91-32.16-44.91s-9.73,14.95,11.48,33.72,18.77,41.72,18.77,41.72V273c-30.59-72-75.44-68.48-75.44-66.39,0,7.68,6.61,30.24,34.07,40.67,28.67,10.89,40.33,28.16,40.33,28.16l2.78,3.4v.42L400,279l.17.21v-.42l2.78-3.4s11.66-17.27,40.33-28.16c27.46-10.43,34.07-33,34.07-40.67C477.35,204.48,432.5,201,401.91,273Z"/><circle cx="400" cy="173.54" r="6.95"/><path d="M392.54,281.46S380.79,264,350.8,264.83C350.8,264.83,363.28,292.79,392.54,281.46Z"/><path d="M407.46,281.46S419.21,264,449.2,264.83C449.2,264.83,436.72,292.79,407.46,281.46Z"/><path d="M409.55,331.19h-19.1a83.26,83.26,0,0,1-83.27-83.26V210.4a83.27,83.27,0,0,1,83.27-83.27h19.1a83.27,83.27,0,0,1,83.27,83.27v37.53a83.26,83.26,0,0,1-83.27,83.26Zm-19.1-200.58a79.88,79.88,0,0,0-79.79,79.79v37.53a79.88,79.88,0,0,0,79.79,79.79h19.1a79.88,79.88,0,0,0,79.79-79.79V210.4a79.88,79.88,0,0,0-79.79-79.79Z"/></svg>