<svg id="Capa_1" data-name="Capa 1" xmlns="http://www.w3.org/2000/svg" viewBox="0 0 800 800"><title>Logo Secundario</title><path d="M150,301.12l39.16,0,.32.12-1.94,5.11-11.24-.11-5.57,14.73,8.52,7.31-1.86,4.92-.32-.13L147.73,307.1Zm17.24,16.78,4.45-11.73-18.22-.2Z"/><path d="M197.29,283.66a14.06,14.06,0,0,1-8.6,1.42,25.09,25.09,0,0,1-9.6-3.64,22.85,22.85,0,0,1-8.21-7.74,15,15,0,0,1-2.16-8.55,18,18,0,0,1,2.67-8.19,23,23,0,0,1,4.05-5,22.7,22.7,0,0,1,5.06-3.5l2.23,4a17.49,17.49,0,0,0-7.32,6.69q-3.07,5.07-1.22,9.5t7.56,7.88q5.9,3.58,10.8,3.08t7.89-5.42a17.34,17.34,0,0,0,2.09-4.87,23.58,23.58,0,0,0,.62-5.1l4.36.18a29.22,29.22,0,0,1-.77,6.44,20.79,20.79,0,0,1-2.52,5.91A18,18,0,0,1,197.29,283.66Z"/><path d="M209.21,209.94l3.55-3.87,27.21,25-3.55,3.86L224.2,223.71l-13.82,15L222.61,250l-3.55,3.86-27.22-25,3.55-3.86,11.72,10.76,13.81-15Z"/><path d="M252.23,196.48l24.94,5.21.2.28-5.12,3.72-24.8-5.31,11.1,15.27-4.24,3.09-21.74-29.9,4.24-3.08L247.18,200l3.06-24,4.84-3.52.2.27Z"/><path d="M289.68,154.11l28.12,27.26.14.31L313,184l-8-7.91-14.26,6.68,1,11.19L287,196.18l-.15-.3-3-39Zm.68,24.06,11.36-5.32L288.79,160Z"/><path d="M376.45,130.91l5.2-.68,4.77,36.66-5.2.67-2.14-16.45-20.25,2.63L361,170.2l-5.2.68L351,134.23l5.2-.68,2.06,15.78,20.24-2.64Z"/><path d="M411,165.23a15.09,15.09,0,0,1-5.25-7.23,24,24,0,0,1-1.11-10.22A21.52,21.52,0,0,1,408,137.35a15.25,15.25,0,0,1,6.9-5.77,18.92,18.92,0,0,1,9-1.3,17.39,17.39,0,0,1,9.17,3.2,15.22,15.22,0,0,1,5.26,7.23,24.35,24.35,0,0,1,1.11,10.23,21.65,21.65,0,0,1-3.28,10.42,15.25,15.25,0,0,1-6.9,5.77,19.19,19.19,0,0,1-9,1.31A17.51,17.51,0,0,1,411,165.23Zm16.44-2.51A11.18,11.18,0,0,0,432,158a19.74,19.74,0,0,0,2-7.44,21.68,21.68,0,0,0-.62-7.86,11.15,11.15,0,0,0-3.46-5.53,11,11,0,0,0-6.38-2.43,11.68,11.68,0,0,0-6.89,1.28,11.19,11.19,0,0,0-4.46,4.74,19.66,19.66,0,0,0-2,7.45,21.76,21.76,0,0,0,.62,7.87,11.19,11.19,0,0,0,3.46,5.53,11,11,0,0,0,6.37,2.42A11.66,11.66,0,0,0,427.48,162.72Z"/><path d="M460.66,170l17.48,4.86-1.23,4.4-22.53-6.27,9.91-35.61,5.06,1.41Z"/><path d="M491.56,185.18l14.68-33.92,4.82,2.08-14.69,33.92Z"/><path d="M516.62,196.89a19.57,19.57,0,0,1-3.43-5.76l4.12-1.89a15.73,15.73,0,0,0,3,5,18.62,18.62,0,0,0,4.18,3.6,10.85,10.85,0,0,0,6.1,2,5.85,5.85,0,0,0,5-5.6,7,7,0,0,0-1-3.09,37,37,0,0,0-3.16-4.38l-.65-.8a38.22,38.22,0,0,1-3.65-5.17,10.23,10.23,0,0,1-1.38-4.62,8.67,8.67,0,0,1,1.47-5,8.38,8.38,0,0,1,4.3-3.68,10.55,10.55,0,0,1,5.63-.39,17.13,17.13,0,0,1,5.76,2.28,23.83,23.83,0,0,1,5.07,4.12,20.83,20.83,0,0,1,3.62,5.5l-4,1.95a20,20,0,0,0-2.92-4.5,17.63,17.63,0,0,0-4.09-3.36,9.23,9.23,0,0,0-4.94-1.56,4.73,4.73,0,0,0-4.42,4.64,6.3,6.3,0,0,0,.92,2.85,30.73,30.73,0,0,0,2.85,4l.65.8a47.72,47.72,0,0,1,3.9,5.31,11.57,11.57,0,0,1,1.59,4.93,9.19,9.19,0,0,1-1.57,5.7,10,10,0,0,1-4.47,4.11,10.22,10.22,0,0,1-5.91.58,19.83,19.83,0,0,1-6.87-2.78A23.44,23.44,0,0,1,516.62,196.89Z"/><path d="M592.35,208.75l-3,3.41-9.53-8.52L558.19,227.8l-3.91-3.49,21.58-24.16-9.56-8.55,3-3.4Z"/><path d="M578,248.27l28.35-23.73,3.37,4-28.35,23.72Z"/><path d="M597.52,271.41a14.17,14.17,0,0,1,2.65-8.3,25.2,25.2,0,0,1,7.62-6.88,22.8,22.8,0,0,1,10.63-3.79,14.92,14.92,0,0,1,8.59,2,18.1,18.1,0,0,1,6.08,6.1,22.79,22.79,0,0,1,2.64,5.92,22.48,22.48,0,0,1,.82,6.09l-4.6.16a17.52,17.52,0,0,0-2.62-9.57q-3.12-5.06-7.9-5.42T611,260.84q-5.88,3.62-7.67,8.21t1.24,9.49a17.66,17.66,0,0,0,3.38,4.08,23,23,0,0,0,4.26,2.87l-2.15,3.8a29.32,29.32,0,0,1-5.38-3.61,20.94,20.94,0,0,1-4.11-4.94A17.92,17.92,0,0,1,597.52,271.41Z"/><path d="M654.53,306.78l-29.25,26-.32.13-2-5.11,8.47-7.39-5.62-14.7-11.22.19L612.77,301l.31-.12,39.17-.09Zm-24-1.09L635,317.41l13.75-12Z"/><path d="M651,502.22l-39.16-.52-.32-.13,2-5.09,11.23.28,5.78-14.65-8.41-7.43,1.93-4.89.32.12,29,26.37Zm-17-17-4.61,11.66,18.22.46Z"/><path d="M603.42,519a14.19,14.19,0,0,1,8.62-1.3,25.33,25.33,0,0,1,9.54,3.79,22.56,22.56,0,0,1,8.1,7.85,14.8,14.8,0,0,1,2,8.58,18,18,0,0,1-2.78,8.15,21.89,21.89,0,0,1-9.23,8.42l-2.17-4a17.64,17.64,0,0,0,7.41-6.6q3.15-5,1.36-9.48c-1.19-3-3.68-5.63-7.45-8s-7.49-3.52-10.76-3.24-5.93,2.06-8,5.31a17.48,17.48,0,0,0-2.16,4.84,22.83,22.83,0,0,0-.69,5.09l-4.36-.24a29.39,29.39,0,0,1,.86-6.42,21,21,0,0,1,2.6-5.88A18,18,0,0,1,603.42,519Z"/><path d="M590.42,592.59l-3.6,3.82L560,571l3.61-3.81,12.06,11.4,14-14.83L577.6,552.36l3.61-3.81L608.06,574l-3.61,3.81-11.56-10.93-14,14.83Z"/><path d="M547.26,605.4l-24.87-5.56-.2-.28,5.17-3.65,24.73,5.66-10.88-15.43,4.28-3,21.31,30.19-4.28,3-10.17-14.4-3.4,24-4.89,3.45-.2-.28Z"/><path d="M509.21,647.23l-27.73-27.65-.14-.31,5-2.25,7.87,8,14.35-6.48-.86-11.19,4.79-2.17.14.31L515,644.6Zm-.34-24.06-11.44,5.16,12.75,13Z"/><path d="M422.12,669.2l-5.22.6-4.25-36.71,5.22-.61,1.9,16.49,20.29-2.35-1.91-16.48,5.21-.61,4.26,36.71-5.22.61L440.57,651l-20.28,2.35Z"/><path d="M388,634.4a15.14,15.14,0,0,1,5.16,7.3,24.18,24.18,0,0,1,1,10.24,21.52,21.52,0,0,1-3.43,10.38,15.25,15.25,0,0,1-7,5.67,19,19,0,0,1-9,1.17,17.37,17.37,0,0,1-9.13-3.33,15.14,15.14,0,0,1-5.16-7.3,24.37,24.37,0,0,1-1-10.24,21.7,21.7,0,0,1,3.43-10.38,15.3,15.3,0,0,1,7-5.67,19,19,0,0,1,9-1.18A17.41,17.41,0,0,1,388,634.4Zm-16.47,2.27a11.13,11.13,0,0,0-4.53,4.68,19.77,19.77,0,0,0-2.08,7.42,21.69,21.69,0,0,0,.51,7.87,11.13,11.13,0,0,0,3.38,5.58,11,11,0,0,0,6.34,2.52,11.68,11.68,0,0,0,6.91-1.19,11.13,11.13,0,0,0,4.53-4.68,19.77,19.77,0,0,0,2.08-7.42,21.71,21.71,0,0,0-.51-7.87,11.24,11.24,0,0,0-3.38-5.57,10.92,10.92,0,0,0-6.34-2.52A11.68,11.68,0,0,0,371.54,636.67Z"/><path d="M338.47,629l-17.41-5.12,1.29-4.37,22.44,6.59-10.42,35.46-5-1.48Z"/><path d="M307.79,613.31,292.62,647l-4.78-2.15L303,611.16Z"/><path d="M282.89,601.25a19.6,19.6,0,0,1,3.35,5.8l-4.14,1.84a15.73,15.73,0,0,0-2.94-5,18.26,18.26,0,0,0-4.12-3.66,11,11,0,0,0-6.07-2.1,5.85,5.85,0,0,0-5.13,5.53,7,7,0,0,0,1,3.1,37.1,37.1,0,0,0,3.1,4.43l.64.81a38.49,38.49,0,0,1,3.58,5.21,10.38,10.38,0,0,1,1.31,4.65,8.74,8.74,0,0,1-1.54,5,8.42,8.42,0,0,1-4.35,3.62,10.51,10.51,0,0,1-5.64.31,17.1,17.1,0,0,1-5.73-2.36,23.72,23.72,0,0,1-5-4.19,20.8,20.8,0,0,1-3.53-5.55l4-1.9a19.91,19.91,0,0,0,2.85,4.55,17.77,17.77,0,0,0,4.05,3.41,9.13,9.13,0,0,0,4.91,1.63,4.27,4.27,0,0,0,3.77-2.2,4.35,4.35,0,0,0,.72-2.38,6.18,6.18,0,0,0-.88-2.85,30,30,0,0,0-2.79-4.07l-.64-.81a47.62,47.62,0,0,1-3.82-5.37,11.27,11.27,0,0,1-1.52-4.95A9.15,9.15,0,0,1,260,598a10,10,0,0,1,4.53-4,10.22,10.22,0,0,1,5.93-.5,19.71,19.71,0,0,1,6.82,2.88A23.12,23.12,0,0,1,282.89,601.25Z"/><path d="M207.34,588.31l3.09-3.36,9.41,8.65,21.92-23.86,3.86,3.55L223.7,597.15l9.45,8.68-3.09,3.36Z"/><path d="M222.24,549l-28.67,23.32-3.31-4.07,28.67-23.32Z"/><path d="M203.05,525.58a14.16,14.16,0,0,1-2.76,8.27,25.39,25.39,0,0,1-7.72,6.77,22.79,22.79,0,0,1-10.68,3.63,14.74,14.74,0,0,1-8.56-2.09,18.07,18.07,0,0,1-6-6.19,22.15,22.15,0,0,1-3.28-12.05l4.6-.09a17.64,17.64,0,0,0,2.48,9.61q3,5.09,7.83,5.52t10.5-3q5.92-3.54,7.78-8.11t-1.1-9.51a17,17,0,0,0-3.33-4.12,22.77,22.77,0,0,0-4.21-2.93l2.2-3.77a28.74,28.74,0,0,1,5.33,3.69,20.79,20.79,0,0,1,4,5A17.75,17.75,0,0,1,203.05,525.58Z"/><path d="M146.55,489.41l29.62-25.62.33-.11,1.87,5.13-8.58,7.26,5.41,14.78,11.23,0,1.8,4.93-.32.12-39.16-.46Zm24,1.43-4.31-11.78-13.92,11.76Z"/><circle cx="155.22" cy="398.71" r="10.69"/><circle cx="644.78" cy="398.71" r="10.69"/><path d="M404.35,499.15V454.81s-5.54-52.26,42.76-95S473.24,283,473.24,283,410.1,295.31,400,385.28C389.9,295.31,326.76,283,326.76,283s-22.17,34,26.13,76.8,42.76,95,42.76,95v44.34C326,335.24,223.82,343.16,223.82,347.91c0,17.5,15.05,68.89,77.6,92.65,65.31,24.8,91.85,64.13,91.85,64.13l6.33,7.74v1l.4-.48.4.48v-1l6.33-7.74s26.54-39.33,91.85-64.13c62.55-23.76,77.6-75.15,77.6-92.65C576.18,343.16,474,335.24,404.35,499.15Z"/><circle cx="400" cy="272.69" r="15.84"/><path d="M383,518.49s-26.76-39.77-95.08-37.86C287.93,480.63,316.36,544.3,383,518.49Z"/><path d="M417,518.49s26.76-39.77,95.08-37.86C512.07,480.63,483.64,544.3,417,518.49Z"/></svg>