<svg id="Capa_1" data-name="Capa 1" xmlns="http://www.w3.org/2000/svg" viewBox="0 0 800 800"><title>Logos</title><path d="M404.69,507.39V459.66s-6-56.25,46-102.27,28.13-82.68,28.13-82.68S410.87,288,400,384.82C389.13,288,321.16,274.71,321.16,274.71s-23.86,36.65,28.13,82.68,46,102.27,46,102.27v47.73C320.31,331,210.36,339.49,210.36,344.6c0,18.83,16.2,74.15,83.53,99.72,70.3,26.7,98.87,69,98.87,69l6.81,8.33v1l.43-.52.43.52v-1l6.81-8.33s28.57-42.34,98.87-69c67.33-25.57,83.53-80.89,83.53-99.72C589.64,339.49,479.69,331,404.69,507.39Z"/><circle cx="400" cy="263.63" r="17.05"/><path d="M381.71,528.21S352.9,485.4,279.37,487.45C279.37,487.45,310,556,381.71,528.21Z"/><path d="M418.29,528.21s28.81-42.81,102.34-40.76C520.63,487.45,490,556,418.29,528.21Z"/><path d="M423.42,650.15H376.58A204.14,204.14,0,0,1,172.44,446V354A204.14,204.14,0,0,1,376.58,149.85h46.84A204.14,204.14,0,0,1,627.56,354v92A204.14,204.14,0,0,1,423.42,650.15ZM376.58,158.37C268.71,158.37,181,246.13,181,354v92c0,107.86,87.75,195.62,195.62,195.62h46.84C531.29,641.63,619,553.87,619,446V354c0-107.86-87.75-195.62-195.62-195.62Z"/></svg>