<svg id="Capa_1" data-name="Capa 1" xmlns="http://www.w3.org/2000/svg" viewBox="0 0 608 554"><title>Icono</title><path d="M310,425.89V365s-7.61-71.79,58.73-130.52S404.61,129,404.61,129,317.87,145.9,304,269.48C290.13,145.9,203.39,129,203.39,129s-30.45,46.77,35.9,105.5S298,365,298,365v60.9C202.31,200.75,62,211.63,62,218.16c0,24,20.67,94.62,106.59,127.25,89.71,34.07,126.17,88.1,126.17,88.1l8.7,10.63v1.33l.54-.66.54.66v-1.33l8.7-10.63s36.46-54,126.17-88.1C525.33,312.78,546,242.18,546,218.16,546,211.63,405.69,200.75,310,425.89Z"/><circle cx="304" cy="114.83" r="21.75"/><path d="M280.66,452.47s-36.76-54.64-130.6-52C150.06,400.45,189.12,487.92,280.66,452.47Z"/><path d="M327.34,452.47s36.76-54.64,130.6-52C457.94,400.45,418.88,487.92,327.34,452.47Z"/></svg>